<?xml version="1.0" encoding="UTF-8"?>
<svg xmlns="http://www.w3.org/2000/svg" version="1.1" viewBox="0 0 384 112.3">
  <defs>
    <style>
      .cls-1 {
        fill: #fff;
      }

      .cls-2 {
        fill: #575756;
      }

      .cls-3 {
        fill: #e30613;
      }
    </style>
  </defs>
  <!-- Generator: Adobe Illustrator 28.6.0, SVG Export Plug-In . SVG Version: 1.2.0 Build 709)  -->
  <g>
    <g id="Warstwa_1">
      <g>
        <path class="cls-2" d="M261.1,73.5c2.8,0,5.6,0,8.4,0h-13.5c-1.5,0-3,0-4.5,0-1.5,0-3,0-4.5,0-1.5,0-3,0-4.5,0s-3,0-4.5,0-3,0-4.5,0c-3,0-6.1.2-9.1.3h-2.3c0,0-2.3.2-2.3.2l-4.5.2c-1.5,0-3,0-4.5.2s-3,0-4.5.2c-3,.2-6,.3-9.1.5-6,.4-12,.7-18,1.1-1.5,0-3,.2-4.5.3-.7,0-1.5,0-2.2.2s-1.5,0-2.2.2c-3,.2-5.9.5-8.8.7h-1.1c0,0-1.1.2-1.1.2-.7,0-1.5,0-2.2.2-1.5,0-2.9.3-4.4.4s-2.9.3-4.3.4c-1.4,0-2.9.3-4.3.4-2.9.3-5.7.6-8.5.8-2.8.3-5.6.6-8.4.9-.7,0-1.6.2-2.5.2s-1,0-1.5,0c-.5,0-1,0-1.6.2-2.1.2-4.2.5-5.6.6-5.6.6-11.5,1.5-17.5,2.3-3,.5-6.1.9-9.2,1.4s-6.2,1-9.3,1.5c-6.2,1-12.4,2.2-18.5,3.3-6,1.2-11.9,2.4-17.3,3.6-1.4.3-2.7.6-4,.9-.6,0-1.3.3-1.9.4s-1.2.3-1.8.5c-2.3.6-4.3,1.2-6,1.6-1.7.5-3,.9-4,1.1s-.8.3-1.1.3c-.2,0-.4,0-.4,0-2.7.8-5.4,1.7-2.6,1.1.7-.2,1.5-.4,2.4-.6.4,0,.9-.2,1.4-.3.5,0,1-.2,1.5-.3,2-.5,4.3-1,6.3-1.4,1-.2,2-.4,2.9-.6.4,0,.9-.2,1.3-.3.4,0,.8-.2,1.1-.2,1.4-.3,2.2-.4,2.3-.4,0,0-.2,0-.5,0s-.7.2-1.2.3c-.5,0-1.1.2-1.8.4-.6,0-1.3.3-2,.5,0,0-2,.7-4.3,1.4-1.2.3-2.4.7-3.6,1-.6.2-1.1.3-1.6.4s-.9.2-1.2.3c-.7.2-2.2.6-4.1,1.2-1,.3-2,.6-3.2.9-.6.2-1.1.3-1.7.5s-1.2.3-1.8.5c-4.7,1.4-9.4,2.8-10.7,3.2-2,.6-2,.7-.7.4,1.3-.3,4-.9,7.2-1.6,1.6-.4,3.4-.8,5.2-1.2,1.8-.4,3.7-.8,5.6-1.2,1.9-.4,3.7-.8,5.4-1.2,1.7-.4,3.3-.7,4.6-1,5.5-1.2.1.3.1.4,2.7-.7,4.8-1.1,6.8-1.6.5,0,1-.2,1.5-.3.5,0,1.1-.2,1.6-.3,1.1-.2,2.3-.5,3.7-.8h.1c0,0,.3,0,.5,0,.5,0,1.1-.2,2-.4.8-.2,1.8-.4,2.9-.6,1.1-.2,2.3-.5,3.6-.7,2.6-.5,5.4-1.1,8.1-1.6s5.3-1,7.3-1.3c0,0,.7,0,2.4-.5.4,0,.9-.2,1.5-.3.3,0,.6,0,.9-.2s.7,0,1-.2c1.4-.2,3.1-.5,5.2-.9,1.4-.2,2.1-.4,2.4-.4s.3,0,.3,0h0c2.7-.5,8.3-1.2,11-1.7h0c1.4,0,2.7-.4,4.1-.6s2.8-.4,4.1-.6c2.8-.4,5.5-.8,8.3-1.2h0c1.4,0,2.8-.3,3.8-.4.5,0,1,0,1.3,0h.5c1.4,0,3.5-.3,5.2-.6.9,0,1.6-.2,2.2-.3.6,0,.9,0,.9,0h0c2.8-.4,5.4-.7,7.8-1,1.2,0,2.4-.3,3.6-.4,1.2,0,2.3-.2,3.5-.4,4.5-.5,8.7-.9,12.8-1.2,2.8-.2,5.6-.5,8.6-.7,2.9-.2,5.9-.5,9-.7,3.1-.3,6.2-.5,9.3-.7,3.2-.2,6.4-.5,9.6-.7,12.9-.9,26.1-1.5,38.7-2,2.8,0,5.6-.3,2.8-.3,1.4,0,2.8,0,4.2,0s2.8,0,4.2,0c5.6,0,2.8-.2,8.4-.4l8.4-.2c1.4,0,2.8,0,4.2,0h29.4c2.8,0,5.6,0,8.4,0h8.4c0,0,8.4.3,8.4.3,2.8,0,5.6.2,8.4.3,2.8,0,5.6.2,8.4.3l8.4.3,8.4.4c11.2.6,22.3,1.2,33.4,2-5.6-.4-10.4-.8-15.3-1.2-4.9-.4-9.8-.6-15.3-.9,0,0,0,0-.3,0-.3,0-1,0-2.4-.2-4.2-.2-8.5-.4-12.9-.6-2.2,0-4.3-.2-6.4-.3-2.1,0-4.2,0-6.2-.2s-3.9,0-5.8-.2c-1.8,0-3.6,0-5.2-.2s-3.2,0-4.5-.2c-1.4,0-2.6,0-3.6,0-1.4,0-2.8,0-4.9-.2-1,0-2.3,0-3.8,0s-3.2,0-5.3,0c2.8,0,5.6,0,8.4,0v-.2c-11.2-.2-25.2-.3-36.3-.2v-.2h-5.6c-1.4,0-.5-.2,1.8-.2s2.7,0,4.4,0,3.8,0,6,0h14.1c4.8,0,9.3,0,12.8,0v-.2h-5.6c2.1,0,4.2,0,6.2,0,2,0,4,0,6,0s3.9,0,5.8,0,3.9,0,5.8,0,1.9,0,2.9,0c1,0,1.9,0,2.9,0,1.9,0,3.9,0,5.8.2,3.9,0,8,.3,12.1.5-2.8,0-8.4-.4-11.2-.4,0,0,0,0-.3,0s-1,0-2.4,0c11.2.4,25.2,1,36.3,1.6,2.8,0,0-.2-8.4-.7-4.2-.2-7.7-.4-11.2-.5s-7-.3-11.2-.4h0c2.8,0,6.3.2,9.8.3,1.7,0,3.5.2,5.2.2,1.7,0,3.2,0,4.6.2,2.8,0-5.6-.4-2.8-.4,2.8,0,5.6.3,8.4.4-1,0-2.1,0-3.3-.2-1.1,0-2.3,0-3.5-.2-2.4,0-4.8-.2-7.3-.3-2.4,0-4.9-.2-7.3-.3-1.2,0-2.3,0-3.5,0s-2.2,0-3.3,0c-1.4,0-2.8,0-3.8-.2s-1.7,0-1.7-.2c-7-.2-13.3-.4-18.9-.5-2.8,0-5.4-.2-7.9-.3-2.4,0-4.7-.2-6.8-.2s-2.1,0-3.9,0h-6.6c-4.9-.1-10.5,0-14.7,0Z"/>
        <g>
          <rect class="cls-3" x="33.2" y="3.9" width="147.9" height="60.6"/>
          <g>
            <g>
              <path class="cls-1" d="M44.8,19.9h8.9v10.8l9.2-10.8h11.7l-10.3,10.7,10.8,17.8h-10.9l-5.9-11.7-4.6,4.8v6.9h-8.9v-28.5h0Z"/>
              <path class="cls-1" d="M78.1,19.9h8.9v21.5h13.8v7.1h-22.7v-28.6Z"/>
              <path class="cls-1" d="M122.3,19.9h8.8v17c0,1.7-.3,3.3-.8,4.8s-1.4,2.8-2.5,3.9-2.3,1.9-3.5,2.4c-1.7.6-3.8,1-6.2,1s-2.9,0-4.6-.3c-1.6-.2-3-.6-4.1-1.2-1.1-.6-2.1-1.4-3-2.5s-1.5-2.2-1.9-3.3c-.5-1.8-.8-3.4-.8-4.8v-17h8.8v17.4c0,1.6.4,2.8,1.3,3.7s2.1,1.3,3.6,1.3,2.7-.4,3.6-1.3c.9-.9,1.3-2.1,1.3-3.7v-17.4h0Z"/>
              <path class="cls-1" d="M135.4,39l8.4-.5c.2,1.4.5,2.4,1.1,3.1.9,1.2,2.2,1.7,3.9,1.7s2.2-.3,2.9-.9c.7-.6,1-1.3,1-2.1s-.3-1.4-1-2c-.6-.6-2.2-1.1-4.5-1.7-3.9-.9-6.6-2-8.3-3.5-1.7-1.4-2.5-3.3-2.5-5.5s.4-2.9,1.3-4.2c.9-1.3,2.1-2.3,3.8-3.1,1.7-.7,4.1-1.1,7-1.1s6.5.7,8.4,2c1.9,1.4,3.1,3.5,3.4,6.5l-8.3.5c-.2-1.3-.7-2.2-1.4-2.8-.7-.6-1.7-.9-3-.9s-1.8.2-2.3.7c-.5.4-.8,1-.8,1.6s.2.9.6,1.2c.4.4,1.4.7,3,1.1,3.9.8,6.6,1.7,8.3,2.5,1.7.9,2.9,1.9,3.7,3.2s1.1,2.7,1.1,4.2-.5,3.5-1.5,5.1-2.4,2.7-4.3,3.5c-1.8.8-4.1,1.2-6.9,1.2-4.9,0-8.2-.9-10.1-2.8-1.7-1.7-2.7-4.1-3-7ZM148.3,12.1h6.8l-6.3,5.8h-3.8l3.3-5.8Z"/>
            </g>
            <path class="cls-1" d="M174.8,50.7c0,1.1-.3,2.1-.8,3s-1.3,1.7-2.2,2.2-1.9.8-3,.8-2.1-.3-3-.8-1.7-1.3-2.2-2.2-.8-1.9-.8-3,.3-2.1.8-3,1.3-1.7,2.2-2.2,1.9-.8,3-.8,2.1.3,3,.8,1.7,1.3,2.2,2.2c.5.9.8,1.9.8,3ZM173.6,50.7c0-1.3-.5-2.5-1.4-3.4s-2.1-1.4-3.4-1.4-2.5.5-3.4,1.4-1.4,2.1-1.4,3.4.5,2.5,1.4,3.4,2.1,1.4,3.4,1.4,2.5-.5,3.4-1.4,1.4-2.1,1.4-3.4ZM166,47.5h2.9c.8,0,1.4.2,1.8.5.4.3.5.8.5,1.3s-.1.8-.4,1.1c-.3.3-.7.5-1.3.7.2,0,.4.2.5.3.2,0,.3.4.5.7,0,0,.4.6,1,1.9h-1.9c-.6-1.2-1-2-1.2-2.2s-.4-.4-.6-.4h-.2v2.5h-1.6v-6.4h0ZM167.6,50.2h.7c.5,0,.8,0,1-.2.2,0,.3-.3.3-.6s-.1-.4-.3-.6c-.2,0-.5-.2-.9-.2h-.7v1.6h-.1Z"/>
          </g>
        </g>
        <g>
          <g>
            <path class="cls-2" d="M194.4,28.7h-4.8V3.9h4.8v24.8Z"/>
            <path class="cls-2" d="M210.3,28.7v-11.1c0-1-.2-1.7-.5-2.2s-.8-.7-1.6-.7-.6,0-.9.1c-.3.1-.7.2-1,.3s-.7.3-1,.5-.6.4-.9.5v12.5h-4.7V12.1h4.2l.4,1.9h.1c.3-.2.7-.5,1.2-.7.5-.3,1-.5,1.5-.7s1.1-.4,1.7-.6c.6-.2,1.1-.2,1.7-.2s1.2.1,1.8.3c.5.2,1,.5,1.4.9s.7.9,1,1.5c.2.6.4,1.3.4,2.1v12h-4.8,0Z"/>
            <path class="cls-2" d="M231.3,23.2c0,.9-.2,1.7-.6,2.3-.4.6-.8,1.1-1.4,1.6-.3.2-.6.5-.9.7-.3.2-.6.4-1,.6s-.8.3-1.3.4-1,.2-1.7.2c-1.2,0-2.2-.1-3.2-.4-1-.2-1.9-.6-2.7-1.2l1.2-3.1c.4.2.7.5,1.1.7.4.3.8.5,1.3.7s.9.4,1.4.6,1,.2,1.5.2.7,0,1-.1.5-.2.7-.3c.2-.1.3-.4.4-.7s.1-.7.1-1.2-.2-1-.6-1.3c-.4-.3-.9-.6-1.5-.8-.6-.2-1.3-.5-2-.7s-1.4-.5-2-.9-1.1-.9-1.5-1.5-.6-1.4-.6-2.4.2-1.3.6-1.9.8-1.2,1.3-1.6c.6-.5,1.2-.9,1.9-1.2s1.5-.4,2.4-.4,1.6,0,2.4.1c.9.1,1.7.2,2.4.3l-.5,3.3c-.4-.1-.8-.3-1.2-.4-.4-.1-.9-.2-1.3-.3s-.8-.2-1.2-.3-.8-.1-1.1-.1-.7,0-.9.1c-.2,0-.4.1-.5.2-.1.1-.2.2-.3.5s-.1.5-.1.7c0,.5.2.9.6,1.2s.9.5,1.5.8c.6.2,1.3.5,2,.7s1.4.5,2,.9,1.1.9,1.5,1.5c.6.8.8,1.6.8,2.5Z"/>
            <path class="cls-2" d="M239.8,13.6c.7-.5,1.3-.9,2.1-1.2s1.5-.5,2.5-.5,1.7.1,2.5.4c.8.3,1.5.8,2.1,1.4.6.6,1.1,1.5,1.5,2.5.4,1,.5,2.3.5,3.8s-.2,2.7-.6,3.8c-.4,1.1-1,2.1-1.7,2.8s-1.6,1.4-2.7,1.8c-1.1.4-2.3.6-3.6.6s-.9,0-1.4-.1-.9-.1-1.2-.2v7.6l-4.7.8V12.6l4.2-.7.5,1.7ZM246.1,20.1c0-1.8-.3-3.2-.9-4.1s-1.4-1.3-2.4-1.3-1,.1-1.5.2-.9.3-1.4.5v10.8c.4.1.7.2,1.1.2s.7.1,1.1.1c.6,0,1.1-.1,1.7-.2.5-.1.9-.3,1.2-.5.3-.3.6-.9.8-1.9.2-1,.3-2.3.3-3.8Z"/>
            <path class="cls-2" d="M259.8,28.7h-4.7V12.1h4.7v16.6Z"/>
            <path class="cls-2" d="M274.6,15.9c-.4-.1-.7-.2-1.2-.3-.4-.1-.8-.1-1.2-.1s-.5,0-.7.1c-.2,0-.4.1-.6.2-.2.1-.4.3-.6.4-.2.2-.4.4-.6.6v11.9h-4.7V12.1h4.2l.4,2.6h0c.1-.2.3-.4.5-.7s.4-.5.6-.8.4-.5.6-.7.5-.4.7-.5c.4-.1.9-.2,1.4-.3.5,0,1.1-.1,1.7-.1l-.5,4.3Z"/>
            <path class="cls-2" d="M282.9,28.7h-4.7V12.1h4.7v16.6Z"/>
            <path class="cls-2" d="M298.7,28.7v-11.1c0-1-.2-1.7-.5-2.2s-.8-.7-1.6-.7-.6,0-.9.1-.7.2-1,.3-.7.3-1,.5-.6.4-.9.5v12.5h-4.7V12.1h4.2l.4,1.9h.1c.3-.2.7-.5,1.2-.7.5-.3,1-.5,1.5-.7s1.1-.4,1.7-.6c.6-.2,1.1-.2,1.7-.2s1.2.1,1.8.3c.5.2,1,.5,1.4.9s.7.9,1,1.5c.2.6.4,1.3.4,2.1v12h-4.8Z"/>
            <path class="cls-2" d="M313,40.2c-1.1,0-2,0-2.8-.3s-1.4-.5-1.9-.8-.8-.7-1-1.1c-.2-.4-.3-.9-.3-1.4,0-.9.3-1.6.9-2.2.6-.6,1.3-1.1,2.3-1.6l1.1.3c-.1.4-.2.7-.2,1s-.1.6-.1,1c0,.8.3,1.4.8,1.8.5.4,1.3.7,2.3.7s.9,0,1.4,0,.9,0,1.3-.2c.4,0,.8-.2,1.2-.3.4,0,.7-.2.9-.4.4-.2.6-.5.7-1,.1-.4.1-.9.1-1.6,0-1.2-1.2-1.8-3.7-1.8h-2.6c-1.9,0-3.2-.3-4.1-.8s-1.3-1.4-1.3-2.7.1-.8.3-1.2c.2-.4.4-.8.7-1.2.3-.4.6-.7.9-1s.6-.6.9-.9c-.5-.2-.9-.5-1.3-.9s-.8-.8-1.1-1.3c-.3-.5-.6-1-.8-1.6-.2-.6-.3-1.3-.3-2,0-1.1.2-2,.6-2.8s.9-1.5,1.5-2.1c.6-.6,1.4-1,2.3-1.3s1.8-.5,2.8-.5,1.6,0,2.3.1c.7.1,1.3.2,1.9.4.8,0,1.7-.1,2.7-.2,1-.1,1.8-.2,2.5-.4l-.4,2.1c-.3.1-.8.2-1.3.3-.6.1-1,.1-1.5.1.2.4.4.9.7,1.5.2.7.4,1.5.4,2.5s-.2,2-.5,2.8-.9,1.5-1.5,2-1.4,1-2.3,1.2c-.9.3-1.8.4-2.9.4h-1.2c-.2,0-.4,0-.6-.1s-.3-.1-.5-.1c-.1.2-.2.5-.3.8-.1.3-.2.7-.2,1s.2.7.6.8c.4.1,1,.2,2,.2h3.7c1.1,0,2.1.1,2.8.3.8.2,1.4.5,1.9.8.5.4.8.9,1,1.4.2.6.3,1.3.3,2.1s-.3,1.9-.8,2.9-1.3,1.8-2.3,2.6-2.1,1.4-3.5,1.9c-1.5.6-2.9.9-4.5.9ZM314.6,22.6c.4,0,.8,0,1-.1.3-.1.5-.2.8-.3.2-.1.4-.6.6-1.3.2-.7.2-1.6.2-2.7s-.1-1.2-.2-1.7-.3-1-.5-1.4-.5-.7-.8-.9-.7-.3-1.2-.3-.7,0-1,.1-.5.2-.8.3c-.3.2-.4.6-.6,1.3-.1.7-.2,1.6-.2,2.7s.1,1.1.2,1.6.3,1,.5,1.4.5.7.8.9c.4.3.8.4,1.2.4Z"/>
          </g>
          <g>
            <path class="cls-2" d="M211.8,57.3c0,.9-.2,1.8-.6,2.7-.4.9-1,1.7-1.9,2.4-.8.7-1.8,1.3-2.9,1.8-1.1.5-2.4.7-3.8.7s-1.4,0-2.1,0c-.6,0-1.2-.2-1.8-.4-.6-.2-1.1-.3-1.6-.6-.5-.2-1-.5-1.6-.7l1.2-3.7c.3.2.8.5,1.4.8.6.3,1.2.5,1.8.8.7.2,1.3.4,2,.6.7.2,1.3.2,1.8.2s1.1,0,1.5,0,.8-.2,1.1-.3c.4,0,.6-.5.9-1.1.2-.6.3-1.3.3-2.2s-.3-1.5-.8-2c-.6-.5-1.2-.9-2.1-1.3s-1.7-.7-2.7-1.1c-1-.4-1.9-.8-2.7-1.4-.8-.6-1.5-1.3-2.1-2.2s-.8-2.1-.8-3.6.2-1.5.6-2.3.9-1.5,1.6-2.2c.7-.7,1.6-1.2,2.7-1.6s2.3-.6,3.6-.6,2.1,0,3.1.2c1,0,2,.3,2.9.4l-.8,3.7c-.4-.2-.9-.3-1.5-.5-.5,0-1.1-.3-1.7-.4-.6,0-1.1-.2-1.6-.3s-1,0-1.4,0-.9,0-1.3,0-.8.2-1.1.4-.5.5-.7.9c-.1.4-.2,1-.2,1.6s.2,1.1.5,1.6.7.8,1.3,1.1c.5.3,1.1.6,1.8.9.7.3,1.4.5,2.1.8.7.3,1.4.6,2.1,1,.7.4,1.3.9,1.8,1.4.5.6,1,1.2,1.3,2.1s.4,1.5.4,2.6Z"/>
            <path class="cls-2" d="M222.7,64.9c-2.7,0-4.7-.7-6.2-2.2-1.4-1.5-2.1-3.6-2.1-6.4s.2-2.5.5-3.6.9-2,1.6-2.7,1.6-1.3,2.6-1.7,2.2-.6,3.6-.6c2.7,0,4.8.7,6.2,2.2s2.1,3.6,2.1,6.3-.2,2.5-.5,3.6c-.4,1.1-.9,2-1.6,2.7-.7.7-1.6,1.3-2.6,1.7-1,.5-2.2.7-3.6.7ZM219.3,56.3c0,2.2.3,3.8.8,4.8s1.4,1.5,2.6,1.5.9,0,1.3,0,.8-.2,1-.4c.2,0,.3-.3.5-.7.1-.3.3-.8.3-1.3.1-.5.2-1.1.2-1.8s.1-1.4.1-2.1c0-2.1-.3-3.7-.8-4.7s-1.4-1.6-2.6-1.6-.9,0-1.3,0c-.4,0-.8.2-1.1.4-.2,0-.3.3-.5.7-.1.3-.2.8-.3,1.3s-.1,1.1-.2,1.7,0,1.5,0,2.2Z"/>
            <path class="cls-2" d="M239.9,64.6h-4.7v-23.6l4.7-1v24.6Z"/>
            <path class="cls-2" d="M249.7,48v11.1c0,1,.2,1.7.5,2.2s.9.7,1.6.7.6,0,.9,0,.7-.2,1-.3.7-.3,1-.5.6-.4.9-.6v-12.5h4.7v16.5h-4.2l-.4-1.9h-.1c-.3.2-.7.5-1.2.7-.5.3-.9.5-1.5.8-.6.3-1.1.4-1.7.6-.6.2-1.1.2-1.7.2s-1.2,0-1.8-.3c-.5-.2-1-.5-1.4-.9s-.7-.9-1-1.5c-.2-.6-.4-1.3-.4-2.1v-12.1h4.8Z"/>
            <path class="cls-2" d="M265.7,50.3l-1.8-.6v-1l5.1-3.6h1.3v2.9h5.1l-.2,1.8c-.4,0-.8,0-1.4.2-.5,0-1.1,0-1.6,0-.6,0-1.2,0-1.8.2v9.3c0,.6.1,1.1.3,1.5.2.4.7.6,1.3.6h.7c.3,0,.6,0,1,0,.3,0,.7,0,1,0s.6,0,.8,0v1.4c-.4.3-.9.5-1.4.8s-1.1.5-1.6.7c-.6.2-1.2.4-1.8.5-.6,0-1.2.2-1.7.2s-.8,0-1.2,0c-.4,0-.8-.2-1.1-.5-.3-.2-.6-.6-.8-1-.2-.4-.3-1-.3-1.6v-11.5h.1Z"/>
            <path class="cls-2" d="M283.4,64.6h-4.7v-16.6h4.7v16.6Z"/>
            <path class="cls-2" d="M295.8,64.9c-2.7,0-4.7-.7-6.2-2.2-1.4-1.5-2.1-3.6-2.1-6.4s.2-2.5.5-3.6.9-2,1.6-2.7,1.6-1.3,2.6-1.7,2.2-.6,3.6-.6c2.7,0,4.8.7,6.2,2.2,1.4,1.5,2.1,3.6,2.1,6.3s-.2,2.5-.5,3.6-.9,2-1.6,2.7-1.6,1.3-2.6,1.7c-1,.4-2.2.7-3.6.7ZM292.4,56.3c0,2.2.3,3.8.8,4.8s1.4,1.5,2.6,1.5.9,0,1.3,0,.8-.2,1-.4c.2,0,.3-.3.5-.7s.3-.8.3-1.3c.1-.5.2-1.1.2-1.8s.1-1.4.1-2.1c0-2.1-.3-3.7-.8-4.7s-1.4-1.6-2.6-1.6-.9,0-1.3,0-.8.2-1.1.4c-.2,0-.3.3-.5.7-.1.3-.2.8-.3,1.3-.1.5-.1,1.1-.2,1.7.1.8,0,1.5,0,2.2Z"/>
            <path class="cls-2" d="M318.8,64.6v-11.1c0-1-.2-1.7-.5-2.2s-.8-.7-1.6-.7-.6,0-.9,0-.7.2-1,.3-.7.3-1,.5-.6.4-.9.5v12.5h-4.7v-16.5h4.2l.4,1.9h.1c.3-.2.7-.5,1.2-.7.5-.3,1-.5,1.5-.7s1.1-.4,1.7-.6c.6-.2,1.1-.2,1.7-.2s1.2,0,1.8.3c.5.2,1,.5,1.4.9s.7.9,1,1.5c.2.6.4,1.3.4,2.1v12h-4.8Z"/>
            <path class="cls-2" d="M339.8,59.1c0,.9-.2,1.7-.6,2.3s-.8,1.1-1.4,1.6c-.3.2-.6.5-.9.7s-.6.4-1,.6-.8.3-1.3.4-1,.2-1.7.2c-1.2,0-2.2,0-3.2-.4-1-.2-1.9-.6-2.7-1.2l1.2-3.1c.4.2.7.5,1.1.7s.8.5,1.3.7.9.4,1.4.6c.5.2,1,.2,1.5.2s.7,0,1,0,.5-.2.7-.3.3-.4.4-.7.1-.7.1-1.2-.2-1-.6-1.3-.9-.6-1.5-.8-1.3-.5-2-.7-1.3-.5-2-.9c-.6-.4-1.1-.9-1.5-1.5s-.6-1.4-.6-2.4.2-1.3.6-1.9c.4-.6.8-1.2,1.3-1.6.6-.5,1.2-.9,1.9-1.2.7-.3,1.5-.4,2.4-.4s1.6,0,2.4,0,1.7.2,2.4.3l-.5,3.3c-.4,0-.8-.3-1.2-.4-.4,0-.9-.2-1.3-.3s-.8-.2-1.2-.3-.8,0-1.1,0-.7,0-.9,0c-.2,0-.4,0-.5.2-.1,0-.2.2-.3.5s-.1.5-.1.7c0,.5.2.9.6,1.2s.9.5,1.5.8c.6.2,1.3.5,2,.7s1.4.5,2,.9,1.1.9,1.5,1.5c.6.8.8,1.6.8,2.5Z"/>
          </g>
          <rect class="cls-2" x="278.3" y="4.5" width="4.5" height="4.5"/>
          <rect class="cls-2" x="278.8" y="40.4" width="4.5" height="4.5"/>
          <rect class="cls-2" x="255.2" y="4.5" width="4.5" height="4.5"/>
        </g>
      </g>
    </g>
  </g>
</svg>