<svg xmlns="http://www.w3.org/2000/svg" xml:space="preserve" id="Warstwa_1" x="0" y="0" version="1.1" viewBox="0 0 841.9 595.3"><style>.st1{fill:#e14e26}</style><path d="M185.5 324.5h12.4v-20h6.8c12.4 0 19.6-6.2 19.6-16.9s-7.1-16.8-19.6-16.8h-19.2zm17.4-29.5h-5.1v-14.8h5.1c5.9 0 8.8 2.5 8.8 7.4.1 4.9-2.9 7.4-8.8 7.4m55.8 29.5h14.4l-13.7-22.2.2-.1c2.5-.8 10.5-4.2 10.5-15.4 0-3.8-1.4-16.1-20-16.1h-19.3v53.7h12.4v-20.7h4.2v.1zm-10.5-30.1H243v-14.2h5.2c6.3 0 9.4 2.3 9.4 7 0 4.8-3.1 7.2-9.4 7.2m29.5 30.1h35.4v-10H290v-12.8h21.1v-9.8H290v-11.3h22.4v-9.8h-34.7zm39.9-7.1c2.7 2.5 9.8 8 19 8 10 0 20.8-5.4 20.8-17.2 0-6.9-3.9-11.8-11.6-14.7-.9-.3-2.3-.9-3.8-1.4-1.5-.6-3.1-1.2-4.3-1.6-2.2-.9-5.6-2.2-5.6-5.6 0-3.1 2.7-5 7.2-5 3.9 0 8.7 2.2 12 5.4l5.2-8.6c-3.8-3.7-11.1-6.5-17-6.5s-10.9 1.5-14.2 4.3c-2.1 1.7-5.6 5.5-5.6 11.7 0 4.3 1.4 7.7 4.2 10.3 2 1.9 4.2 2.9 5.7 3.6.2.1.5.2.6.3 1.3.6 3.8 1.5 6 2.3.8.3 1.6.6 2.2.8h.1c2.4.9 6.3 2.3 6.3 6.1 0 3.5-2.9 5.7-7.4 5.7-4.3 0-10.3-2.9-14.1-6.7zm72.3-47.4c-7.8 0-14.9 2.6-20 7.3-5.4 5-8.2 12.1-8.2 20.4s2.8 15.3 8.2 20.3c5.1 4.8 12.2 7.4 20 7.4 8.1 0 14.6-2.4 19.3-7.2l-4.1-9.6c-2.2 2.2-6.8 5.6-14.5 5.6-9.6 0-16.4-6.9-16.4-16.7 0-10.1 6.6-16.8 16.4-16.8 6.9 0 12.6 4.1 13.9 5.5l3.8-10.2c-.7-.7-6.4-6-18.4-6m48.9-.1c-7.9 0-15.1 2.6-20.2 7.4-5.4 5-8.3 12.1-8.3 20.4s2.9 15.4 8.3 20.4c5.1 4.7 12.3 7.3 20.2 7.3s15.1-2.6 20.2-7.3c5.4-5 8.3-12.1 8.3-20.4s-2.9-15.4-8.3-20.4c-5.1-4.8-12.3-7.4-20.2-7.4m0 44.5c-9.4 0-16-7-16-17.1 0-10 6.6-17 16-17s16 7 16 17c-.1 10.1-6.6 17.1-16 17.1m41.7 10.1h12.4v-44h13.9v-9.7h-40.3v9.7h13.9v44z" style="fill:#fff"/><path d="M527.4 324.4h31v-10.2h-18.7v-43.5h-12.3zm37.4 0h34.7V314h-22.4v-12.4h20.5v-9.8h-20.5v-10.9h22.4v-10.2h-34.7zm43.9-22.7h16.9v-9.8h-16.9z" class="st1"/><path d="M608.7 324.4h18.2c18.4 0 29.4-10 29.4-26.9 0-8.5-2.9-15.5-8.4-20.1-5.1-4.4-12.4-6.7-21.1-6.7h-18.2v10.2h18.9c10.1 0 16.2 6.2 16.2 16.7 0 10.1-6.2 16.4-16.2 16.4h-18.9v10.4z" class="st1"/></svg>