<svg xmlns="http://www.w3.org/2000/svg" xml:space="preserve" id="Warstwa_1" x="0" y="0" version="1.1" viewBox="0 0 841.9 595.3"><style>.st1{fill:#e14e26}</style><path d="M204.7 304.6H198v20h-12.7v-54h19.3c11 0 19.7 4.9 19.7 17 .2 12-8.5 17-19.6 17m-1.8-24.2H198v14.5h4.9c4.9 0 8.7-1.7 8.7-7.3 0-5.5-3.8-7.2-8.7-7.2m55.8 44.2-11.4-20.7h-4v20.7h-12.7v-54H250c10.3 0 20.2 4.4 20.2 16.2 0 10.3-6.6 14.2-10.6 15.5l13.7 22.3zm-10.5-44.2h-5v13.9h5c4.7 0 9.2-1.4 9.2-7 .1-5.7-4.5-6.9-9.2-6.9m29.4 44.2v-54h35v10.1h-22.4v11h21.1v10.1h-21.1v12.5h23.1v10.3zm59 .9c-7.8 0-14.8-4.1-19.2-8.1l6.3-9.2c3.9 4.1 9.9 6.8 14.1 6.8 4.1 0 7.2-2 7.2-5.6 0-3.7-4-5.1-6.3-5.9-2.3-.9-6.4-2.3-8.2-3.1-1.3-.6-4.1-1.6-6.4-3.9-2.3-2.2-4.2-5.3-4.2-10.4 0-5.2 2.5-9.2 5.6-11.8s8-4.3 14.2-4.3 13.5 3 17.1 6.7l-5.4 8.8c-3.1-3.1-8-5.5-12.1-5.5s-7 1.6-7 4.9 3.1 4.5 5.5 5.5c2.3.9 6.3 2.3 8.1 3.1 6.9 2.5 11.7 7 11.7 14.8 0 11.5-10.5 17.2-21 17.2m53.3 0c-15.9 0-28.3-10.5-28.3-27.9 0-17.5 12.6-27.9 28.3-27.9 11.1 0 17.1 4.6 18.6 6.1l-3.9 10.5c-1-1.3-6.8-5.6-13.9-5.6-9.2 0-16.2 6.1-16.2 16.7s7.4 16.6 16.2 16.6c6.7 0 11.6-2.7 14.6-5.7l4.2 9.9c-2.8 2.8-8.5 7.3-19.6 7.3m48.9 0c-16 0-28.7-10.4-28.7-27.9s12.6-27.9 28.7-27.9 28.7 10.5 28.7 27.9-12.7 27.9-28.7 27.9m0-45c-9 0-15.8 6.5-15.8 16.8s6.8 16.9 15.8 16.9 15.8-6.6 15.8-16.9c0-10.2-6.8-16.8-15.8-16.8m54.2.1v44h-12.7v-44h-13.9v-10H507v10z" style="fill:#212a35"/><path d="M527.3 324.6v-54h12.6v43.5h18.7v10.5zm37.4 0v-54h35v10.5h-22.4v10.6h20.5v10.1h-20.5v12.1h22.4v10.7zm43.9-32.9h17.2v10.1h-17.2z" class="st1"/><path d="M626.9 270.6h-18.3v10.5h19c10.3 0 16 6.3 16 16.5 0 10-6 16.3-16 16.3h-19v10.7h18.3c17.1 0 29.6-8.9 29.6-27 0-18-12.6-27-29.6-27" class="st1"/></svg>